<svg xmlns="http://www.w3.org/2000/svg" version="1.1" xmlns:xlink="http://www.w3.org/1999/xlink" xmlns:svgjs="http://svgjs.com/svgjs" width="1440" height="560" preserveAspectRatio="none" viewBox="0 0 1440 560">
    <g mask="url(&quot;#SvgjsMask1024&quot;)" fill="none">
        <rect width="1440" height="560" x="0" y="0" fill="rgba(249, 249, 249, 1)"></rect>
        <path d="M185.98799152640353 78.9203900742082L89.62715021942775-58.69715336634238-47.990393221122844 37.66368794063341 48.370448085852956 175.281231381184z" fill="rgba(233, 5, 5, 0.4)" class="triangle-float1"></path>
        <path d="M-75.97316260778051 58.30360012210114L44.87592384911298 175.00620635921257 161.57853008622442 54.157119902319074 40.729443629330916-62.54548633479235z" fill="rgba(233, 5, 5, 0.4)" class="triangle-float3"></path>
        <path d="M101.14435569428869-68.03309788588594L-51.11535252786848 2.966770086551577 19.884515444569033 155.22647830870875 172.1442236667262 84.22661033627124z" fill="rgba(233, 5, 5, 0.4)" class="triangle-float2"></path>
        <path d="M1419.935,200.302C1462.43,201.139,1507.3,191.404,1530.179,155.584C1554.594,117.359,1555.324,65.976,1529.584,28.63C1506.368,-5.053,1460.692,-7.889,1419.935,-4.366C1386.122,-1.443,1357.56,16.806,1338.843,45.117C1317.465,77.452,1299.011,117.031,1316.963,151.386C1335.825,187.483,1379.215,199.5,1419.935,200.302" fill="rgba(233, 5, 5, 0.4)" class="triangle-float2"></path>
        <path d="M1257.7742121398169 94.59109614015009L1406.1094077401167 173.46231868817966 1484.9806302881461 25.127123087879923 1336.6454346878465-53.74409946014967z" fill="rgba(233, 5, 5, 0.4)" class="triangle-float3"></path>
        <path d="M1502.6347614719373 113.86203930660156L1447.9393115231348-44.985081394083664 1289.0921908224498 9.710368554718713 1343.787640771252 168.55748925540394z" fill="rgba(233, 5, 5, 0.4)" class="triangle-float3"></path>
        <path d="M182.88007055600175 540.3822747766854L101.43205435461712 393.44616397726696-45.504056444801364 474.8941801786516 35.94395975658327 621.83029097807z" fill="rgba(233, 5, 5, 0.4)" class="triangle-float3"></path>
        <path d="M49.09200621560334 635.8123736380502L173.94033689580553 523.3984317697619 61.52639502751733 398.5501010895598-63.321935652684864 510.964042957848z" fill="rgba(233, 5, 5, 0.4)" class="triangle-float1"></path>
        <path d="M-125.11 498.43 a175.54 175.54 0 1 0 351.08 0 a175.54 175.54 0 1 0 -351.08 0z" fill="rgba(233, 5, 5, 0.4)" class="triangle-float3"></path>
        <path d="M1288.79 412.53 a3.74 3.74 0 1 0 7.48 0 a3.74 3.74 0 1 0 -7.48 0z" fill="rgba(233, 5, 5, 0.4)" class="triangle-float2"></path>
        <path d="M1400.934,614.841C1432.447,614.55,1456.42,589.335,1471.182,561.492C1484.905,535.61,1486.639,505.266,1472.687,479.507C1458.025,452.438,1431.659,433.721,1400.934,431.793C1366.398,429.625,1328.437,439.127,1311.676,469.401C1295.255,499.062,1310.665,533.917,1328.398,562.812C1345.079,589.993,1369.043,615.136,1400.934,614.841" fill="rgba(233, 5, 5, 0.4)" class="triangle-float3"></path>
        <path d="M1219.95 481.38 a141.43 141.43 0 1 0 282.86 0 a141.43 141.43 0 1 0 -282.86 0z" fill="rgba(233, 5, 5, 0.4)" class="triangle-float1"></path>
    </g>
    <defs>
        <mask id="SvgjsMask1024">
            <rect width="1440" height="560" fill="#ffffff"></rect>
        </mask>
        <style>
            @keyframes float1 {
                0%{transform: translate(0, 0)}
                50%{transform: translate(-10px, 0)}
                100%{transform: translate(0, 0)}
            }

            .triangle-float1 {
                animation: float1 5s infinite;
            }

            @keyframes float2 {
                0%{transform: translate(0, 0)}
                50%{transform: translate(-5px, -5px)}
                100%{transform: translate(0, 0)}
            }

            .triangle-float2 {
                animation: float2 4s infinite;
            }

            @keyframes float3 {
                0%{transform: translate(0, 0)}
                50%{transform: translate(0, -10px)}
                100%{transform: translate(0, 0)}
            }

            .triangle-float3 {
                animation: float3 6s infinite;
            }
        </style>
    </defs>
</svg>